<svg width="178" height="199" viewBox="0 0 178 199" fill="none" xmlns="http://www.w3.org/2000/svg">
<path d="M92.6651 0C97.6752 1.23906 102.901 1.83166 107.588 3.77106C125.419 11.0977 136.248 24.458 139.588 43.5288C143.251 64.7005 132.854 86.3033 113.675 96.5929C94.9816 106.613 76.3957 105.59 58.9949 93.4683C44.9882 83.7174 37.6615 69.8184 37.3383 52.7948C37.0151 33.8318 45.2037 19.0169 60.8805 8.35019C67.7761 3.66331 75.5337 1.07744 83.8301 0.269361C84.2072 0.215489 84.5843 0.107744 84.9614 0C87.4934 0 90.0792 0 92.6651 0Z" fill="#DDDDDD"/>
<path d="M88.4086 198.573C65.9978 198.357 45.5802 191.785 27.533 178.425C16.8663 170.452 7.86963 160.701 0.920114 149.226C-0.15733 147.448 -0.318947 145.67 0.596881 143.731C10.24 123.852 25.8091 111.677 47.5735 107.367C51.56 106.559 54.7923 107.367 58.0785 109.63C76.7722 122.344 100.907 122.29 119.654 109.522C122.941 107.26 126.173 106.613 130.052 107.367C149.877 111.138 164.746 121.967 174.712 139.26C179.183 147.017 178.806 145.347 174.496 151.866C164.153 167.543 150.631 179.772 133.715 188.068C119.439 195.125 104.355 198.465 88.4086 198.573Z" fill="#DDDDDD"/>
</svg>
