<svg width="14" height="10" viewBox="0 0 14 10" fill="none" xmlns="http://www.w3.org/2000/svg">
<path d="M6.46875 8.9375C6.75 9.21875 7.21875 9.21875 7.5 8.9375L13.5938 2.875C13.875 2.5625 13.875 2.09375 13.5938 1.8125L12.875 1.09375C12.5938 0.8125 12.125 0.8125 11.8125 1.09375L7 5.90625L2.15625 1.09375C1.84375 0.8125 1.375 0.8125 1.09375 1.09375L0.375 1.8125C0.09375 2.09375 0.09375 2.5625 0.375 2.875L6.46875 8.9375Z" fill="#222021"/>
<path d="M6.46875 8.9375L6.64553 8.76072L6.64507 8.76027L6.46875 8.9375ZM7.5 8.9375L7.32368 8.76027L7.32322 8.76072L7.5 8.9375ZM13.5938 2.875L13.7703 3.0525L13.7796 3.04224L13.5938 2.875ZM11.8125 1.09375L11.645 0.907669L11.6357 0.916973L11.8125 1.09375ZM7 5.90625L6.8238 6.0836L7.00057 6.25923L7.17678 6.08303L7 5.90625ZM2.15625 1.09375L2.33267 0.916186L2.32349 0.907927L2.15625 1.09375ZM0.375 2.875L0.188893 3.0425L0.198678 3.05223L0.375 2.875ZM6.29197 9.11428C6.67085 9.49316 7.2979 9.49316 7.67678 9.11428L7.32322 8.76072C7.1396 8.94434 6.82915 8.94434 6.64553 8.76072L6.29197 9.11428ZM7.67632 9.11473L13.7701 3.05223L13.4174 2.69777L7.32368 8.76027L7.67632 9.11473ZM13.7796 3.04224C14.1416 2.64001 14.1542 2.01942 13.7705 1.63572L13.417 1.98928C13.5958 2.16808 13.6084 2.48499 13.4079 2.70776L13.7796 3.04224ZM13.7705 1.63572L13.0518 0.916973L12.6982 1.27053L13.417 1.98928L13.7705 1.63572ZM13.0518 0.916973C12.6681 0.53328 12.0475 0.54592 11.6453 0.907927L11.9797 1.27957C12.2025 1.07908 12.5194 1.09172 12.6982 1.27053L13.0518 0.916973ZM11.6357 0.916973L6.82322 5.72947L7.17678 6.08303L11.9893 1.27053L11.6357 0.916973ZM7.1762 5.7289L2.33245 0.916402L1.98005 1.2711L6.8238 6.0836L7.1762 5.7289ZM2.32349 0.907927C1.92126 0.54592 1.30067 0.53328 0.916973 0.916973L1.27053 1.27053C1.44933 1.09172 1.76624 1.07908 1.98901 1.27957L2.32349 0.907927ZM0.916973 0.916973L0.198223 1.63572L0.551777 1.98928L1.27053 1.27053L0.916973 0.916973ZM0.198223 1.63572C-0.18547 2.01942 -0.17283 2.64001 0.189176 3.04224L0.560824 2.70776C0.36033 2.48499 0.37297 2.16808 0.551777 1.98928L0.198223 1.63572ZM0.198678 3.05223L6.29243 9.11473L6.64507 8.76027L0.551322 2.69777L0.198678 3.05223Z" fill="white"/>
</svg>
