<svg width="30" height="30" viewBox="0 0 30 30" fill="none" xmlns="http://www.w3.org/2000/svg">
<path d="M16.875 5C16.875 4 16.125 3.25 15.125 3.25C14.125 3.25 13.375 4 13.375 5L13.125 13.875C13.125 14.125 12.625 14.125 12.625 13.875L12 7.375C12 6.375 11.375 5.625 10.375 5.625C9.37495 5.625 8.62495 6.375 8.62495 7.375V18.5C8.62495 19 7.99995 19.125 7.74995 18.75L5.99995 15.875C5.49995 15 4.37495 14.75 3.49995 15.25C2.62495 15.75 2.37495 16.875 2.87495 17.75L6.74995 24C7.87495 25.75 9.74995 26.75 11.75 26.75H20.25C23.5 26.75 26.125 24.125 26.125 20.875V8.5C26.125 7.5 25.375 6.75 24.375 6.75C23.375 6.75 22.625 7.5 22.625 8.5L22.125 13.75C22.125 14 21.75 14 21.75 13.75L21.375 6.125C21.375 5.125 20.625 4.375 19.625 4.375C18.625 4.375 17.875 5.125 17.875 6.125L17.5 13.75C17.5 14 17 14 17 13.75L16.875 5Z" stroke="white" stroke-width="1.8" stroke-miterlimit="10"/>
</svg>
