<svg width="16" height="19" viewBox="0 0 16 19" fill="none" xmlns="http://www.w3.org/2000/svg">
<path d="M14.0625 8.125C14.5312 8.125 14.9297 8.28906 15.2578 8.61719C15.5859 8.94531 15.75 9.34375 15.75 9.8125V16.5625C15.75 17.0312 15.5859 17.4297 15.2578 17.7578C14.9297 18.0859 14.5312 18.25 14.0625 18.25H1.6875C1.21875 18.25 0.820312 18.0859 0.492188 17.7578C0.164063 17.4297 0 17.0312 0 16.5625V9.8125C0 9.34375 0.164063 8.94531 0.492188 8.61719C0.820312 8.28906 1.21875 8.125 1.6875 8.125H2.53125V5.59375C2.53125 4.11719 3.04688 2.86328 4.07812 1.83203C5.13281 0.777344 6.39844 0.25 7.875 0.25C9.35156 0.25 10.6055 0.777344 11.6367 1.83203C12.6914 2.86328 13.2188 4.11719 13.2188 5.59375V8.125H14.0625ZM10.4062 8.125V5.59375C10.4062 4.89062 10.1602 4.29297 9.66797 3.80078C9.17578 3.30859 8.57812 3.0625 7.875 3.0625C7.17188 3.0625 6.57422 3.30859 6.08203 3.80078C5.58984 4.29297 5.34375 4.89062 5.34375 5.59375V8.125H10.4062Z" fill="#222021"/>
</svg>
