<svg width="31" height="31" viewBox="0 0 31 31" fill="none" xmlns="http://www.w3.org/2000/svg">
<path d="M30.0017 4.39081C29.9861 4.43777 29.9548 4.47691 29.947 4.52387C29.8217 5.20479 29.5087 5.7918 29.0234 6.27706C25.3448 9.95564 21.6741 13.6264 18.0033 17.2971C17.745 17.5554 17.4398 17.7041 17.0719 17.7433C15.7805 17.892 14.4969 18.0485 13.2055 18.1972C12.3837 18.2911 11.695 17.6337 11.7889 16.8119C11.9376 15.4813 12.0863 14.1586 12.2741 12.8359C12.3133 12.5541 12.4698 12.2489 12.6655 12.0454C16.3597 8.32767 20.0696 4.62562 23.7795 0.915731C24.2882 0.406991 24.9143 0.148708 25.6031 0C25.8927 0 26.1901 0 26.4797 0C26.5267 0.0156535 26.5658 0.0469606 26.6128 0.0547873C27.8259 0.26611 28.7808 0.892251 29.3913 1.94886C29.6808 2.44195 29.7982 3.02896 29.9939 3.57683C30.0017 3.85077 30.0017 4.11688 30.0017 4.39081ZM14.4656 15.5361C15.0839 15.4657 15.6631 15.4031 16.2345 15.317C16.3832 15.2935 16.5475 15.2074 16.6571 15.1056C20.1557 11.6149 23.6386 8.12418 27.145 4.64127C27.5754 4.2108 27.5676 3.81946 27.3328 3.34985C27.1293 2.95852 26.8084 2.70023 26.3936 2.56718C26.0414 2.44978 25.7362 2.50456 25.4622 2.7785C21.9245 6.3162 18.3947 9.84606 14.857 13.3838C14.7943 13.4464 14.7161 13.5168 14.7083 13.5873C14.6222 14.2212 14.5517 14.863 14.4656 15.5361Z" fill="#023769"/>
<path d="M0.00195669 16.8667C0.00195669 13.7908 0.00195669 10.7148 0.00195669 7.63893C0.00195669 5.36134 1.6221 3.74902 3.89969 3.74902C7.37477 3.74902 10.8499 3.74902 14.3249 3.74902C15.0998 3.74902 15.6555 4.28124 15.6477 5.00913C15.6398 5.69006 15.1311 6.20663 14.4189 6.24576C14.2154 6.25359 14.0119 6.24576 13.8005 6.24576C10.5211 6.24576 7.24172 6.24576 3.95447 6.24576C2.97613 6.25359 2.50652 6.71537 2.50652 7.70154C2.50652 13.8143 2.51435 19.927 2.4987 26.0397C2.4987 26.9319 3.07005 27.5033 3.9623 27.5033C9.65236 27.4798 15.3502 27.4798 21.0403 27.5033C22.0186 27.5033 22.5274 26.8537 22.5196 26.024C22.4883 22.9951 22.5039 19.9739 22.5117 16.945C22.5117 16.3345 22.7935 15.8962 23.3022 15.6927C24.0301 15.4031 24.8363 15.8414 24.985 16.6162C25.0085 16.7336 25.0163 16.851 25.0163 16.9684C25.0163 20.0522 25.032 23.1359 25.0085 26.2275C25.0006 27.7694 24.2728 28.9043 22.9031 29.6243C22.41 29.8826 21.8778 30.0078 21.3221 30.0078C15.4442 30.0078 9.56627 30.0157 3.68836 30.0078C1.66123 30 0.0176102 28.3251 0.00978346 26.2901C-0.00587007 23.1359 0.00195669 19.9974 0.00195669 16.8667Z" fill="#023769"/>
</svg>
