<svg width="22" height="22" viewBox="0 0 22 22" fill="none" xmlns="http://www.w3.org/2000/svg">
<path d="M0 10.5277C0.0301284 10.4244 0.0602569 10.3211 0.0989934 10.2221C0.327109 9.59369 0.899549 9.17189 1.60111 9.16759C3.89087 9.15898 6.18494 9.15468 8.4747 9.16759C9.4302 9.17189 10.0844 9.88206 10.0887 10.8634C10.093 12.6883 10.0887 14.5132 10.0887 16.3381C10.0887 17.5691 10.0887 18.8001 10.0887 20.031C10.0887 21.1931 9.79604 21.6106 8.72433 21.9937C6.27532 21.9937 3.82631 21.9937 1.3773 21.9937C0.86942 21.8732 0.451926 21.6278 0.202291 21.1501C0.120514 20.9951 0.068865 20.823 0.00430406 20.6594C0 17.285 0 13.9064 0 10.5277ZM1.373 15.5979C1.373 17.143 1.373 18.6882 1.373 20.2333C1.373 20.5733 1.42034 20.6207 1.75175 20.6207C3.94252 20.6207 6.13329 20.6207 8.32405 20.6207C8.65116 20.6207 8.71142 20.5647 8.71142 20.2333C8.71142 17.1258 8.71142 14.0226 8.71142 10.915C8.71142 10.6008 8.64686 10.5363 8.33697 10.5363C6.13759 10.5363 3.94252 10.5363 1.74314 10.5363C1.42895 10.5363 1.373 10.5965 1.373 10.915C1.373 12.4774 1.373 14.0355 1.373 15.5979Z" fill="#023769"/>
<path d="M0 1.33419C0.0258244 1.26963 0.0516487 1.20507 0.073169 1.1362C0.284068 0.464771 0.878029 0.00423747 1.57959 0.00423747C3.88657 -6.65821e-05 6.18924 -0.00437064 8.49622 0.00423747C9.37425 0.00854153 10.0672 0.692886 10.0801 1.59674C10.1016 2.97834 10.1016 4.35994 10.0801 5.74154C10.0672 6.654 9.38716 7.32544 8.4747 7.33404C6.18494 7.34696 3.89087 7.34696 1.60111 7.33404C0.817772 7.32544 0.236723 6.83477 0.0387366 6.07296C0.0301284 6.03852 0.0129122 6.00839 0 5.97396C0 4.4245 0 2.87935 0 1.33419ZM5.04006 1.37723C3.93822 1.37723 2.83638 1.37723 1.73454 1.37723C1.43756 1.37723 1.3773 1.43749 1.3773 1.72156C1.3773 3.01708 1.3773 4.3126 1.3773 5.60812C1.3773 5.89649 1.44186 5.96105 1.73023 5.96105C3.94252 5.96105 6.1505 5.96105 8.36279 5.96105C8.64256 5.96105 8.71142 5.88788 8.71142 5.59951C8.71142 4.3126 8.71142 3.02568 8.71142 1.73447C8.71142 1.43318 8.64686 1.37293 8.34557 1.37293C7.24374 1.37723 6.1419 1.37723 5.04006 1.37723Z" fill="#023769"/>
<path d="M13.2777 21.998C13.1744 21.9679 13.0754 21.9377 12.9721 21.899C12.3437 21.6666 11.9219 21.0985 11.9176 20.3969C11.9047 19.0153 11.9004 17.6337 11.9176 16.2521C11.9305 15.3181 12.6364 14.6639 13.5919 14.6596C15.1457 14.6553 16.6994 14.6596 18.2532 14.6596C18.9332 14.6596 19.6133 14.6596 20.2933 14.6596C21.3263 14.6639 21.9977 15.3396 21.9977 16.3726C21.9977 17.6552 21.9977 18.9335 21.9977 20.2161C21.9977 21.1802 21.5888 21.7182 20.6592 21.9765C20.6462 21.9808 20.6333 21.9894 20.6204 21.998C18.1757 21.998 15.7267 21.998 13.2777 21.998ZM16.9577 20.6207C18.0595 20.6207 19.1613 20.6207 20.2632 20.6207C20.5645 20.6207 20.6204 20.5604 20.6204 20.2549C20.6204 18.9679 20.6204 17.681 20.6204 16.3898C20.6204 16.1014 20.5559 16.0326 20.2675 16.0326C18.0552 16.0326 15.8472 16.0326 13.6349 16.0326C13.3509 16.0326 13.282 16.1014 13.282 16.3898C13.282 17.6767 13.282 18.9636 13.282 20.2549C13.282 20.5561 13.3466 20.6164 13.6478 20.6164C14.754 20.6207 15.8558 20.6207 16.9577 20.6207Z" fill="#023769"/>
<path d="M21.9978 6.40869C21.9978 7.97537 21.9978 9.54204 21.9978 11.1087C21.9978 12.1546 21.3264 12.8303 20.2848 12.8347C18.0639 12.839 15.8473 12.839 13.6264 12.8347C12.5977 12.8347 11.9134 12.1546 11.9134 11.1259C11.9091 7.98397 11.9091 4.84201 11.9134 1.70004C11.9134 0.679981 12.5977 -6.10352e-05 13.6092 -6.10352e-05C15.843 -6.10352e-05 18.0768 -6.10352e-05 20.3106 -6.10352e-05C21.3135 -6.10352e-05 21.9978 0.679981 21.9978 1.68283C22.0021 3.25811 21.9978 4.8334 21.9978 6.40869ZM20.6248 6.4216C20.6248 4.86783 20.6248 3.31407 20.6248 1.7646C20.6248 1.42889 20.5775 1.37724 20.2461 1.37724C18.0553 1.37724 15.8645 1.37724 13.6738 1.37724C13.3423 1.37724 13.2907 1.43319 13.2907 1.7646C13.2907 4.87214 13.2907 7.97537 13.2907 11.0829C13.2907 11.3971 13.3552 11.4617 13.6651 11.4617C15.8645 11.4617 18.0596 11.4617 20.259 11.4617C20.5732 11.4617 20.6291 11.4014 20.6291 11.0829C20.6248 9.52913 20.6248 7.97537 20.6248 6.4216Z" fill="#023769"/>
</svg>
