<svg width="13" height="15" viewBox="0 0 13 15" fill="none" xmlns="http://www.w3.org/2000/svg">
<path d="M0 13.4375L0 6H12.25V13.4375C12.25 13.8021 12.1224 14.112 11.8672 14.3672C11.612 14.6224 11.3021 14.75 10.9375 14.75H1.3125C0.947917 14.75 0.638021 14.6224 0.382812 14.3672C0.127604 14.112 0 13.8021 0 13.4375ZM8.75 8.07812V9.17188C8.75 9.39062 8.85938 9.5 9.07812 9.5H10.1719C10.3906 9.5 10.5 9.39062 10.5 9.17188V8.07812C10.5 7.85938 10.3906 7.75 10.1719 7.75H9.07812C8.85938 7.75 8.75 7.85938 8.75 8.07812ZM8.75 11.5781V12.6719C8.75 12.8906 8.85938 13 9.07812 13H10.1719C10.3906 13 10.5 12.8906 10.5 12.6719V11.5781C10.5 11.3594 10.3906 11.25 10.1719 11.25H9.07812C8.85938 11.25 8.75 11.3594 8.75 11.5781ZM5.25 8.07812V9.17188C5.25 9.39062 5.35938 9.5 5.57812 9.5H6.67188C6.89062 9.5 7 9.39062 7 9.17188V8.07812C7 7.85938 6.89062 7.75 6.67188 7.75H5.57812C5.35938 7.75 5.25 7.85938 5.25 8.07812ZM5.25 11.5781V12.6719C5.25 12.8906 5.35938 13 5.57812 13H6.67188C6.89062 13 7 12.8906 7 12.6719V11.5781C7 11.3594 6.89062 11.25 6.67188 11.25H5.57812C5.35938 11.25 5.25 11.3594 5.25 11.5781ZM1.75 8.07812V9.17188C1.75 9.39062 1.85938 9.5 2.07812 9.5H3.17188C3.39062 9.5 3.5 9.39062 3.5 9.17188V8.07812C3.5 7.85938 3.39062 7.75 3.17188 7.75H2.07812C1.85938 7.75 1.75 7.85938 1.75 8.07812ZM1.75 11.5781V12.6719C1.75 12.8906 1.85938 13 2.07812 13H3.17188C3.39062 13 3.5 12.8906 3.5 12.6719V11.5781C3.5 11.3594 3.39062 11.25 3.17188 11.25H2.07812C1.85938 11.25 1.75 11.3594 1.75 11.5781ZM10.9375 2.5C11.3021 2.5 11.612 2.6276 11.8672 2.88281C12.1224 3.13802 12.25 3.44792 12.25 3.8125V5.125H0L0 3.8125C0 3.44792 0.127604 3.13802 0.382812 2.88281C0.638021 2.6276 0.947917 2.5 1.3125 2.5H2.625V1.1875C2.625 1.0599 2.66146 0.959635 2.73438 0.886719C2.82552 0.795573 2.9349 0.75 3.0625 0.75H3.9375C4.0651 0.75 4.16536 0.795573 4.23828 0.886719C4.32943 0.959635 4.375 1.0599 4.375 1.1875V2.5H7.875V1.1875C7.875 1.0599 7.91146 0.959635 7.98438 0.886719C8.07552 0.795573 8.1849 0.75 8.3125 0.75H9.1875C9.3151 0.75 9.41536 0.795573 9.48828 0.886719C9.57943 0.959635 9.625 1.0599 9.625 1.1875V2.5H10.9375Z" fill="#777777"/>
</svg>
