<svg width="14" height="10" viewBox="0 0 14 10" fill="none" xmlns="http://www.w3.org/2000/svg">
<path d="M6.46875 8.90625L0.40625 2.84375C0.260417 2.69792 0.1875 2.52083 0.1875 2.3125C0.1875 2.10417 0.260417 1.92708 0.40625 1.78125L1.09375 1.09375C1.23958 0.947917 1.41667 0.875 1.625 0.875C1.83333 0.854167 2.01042 0.916667 2.15625 1.0625L7 5.90625L11.8438 1.0625C11.9896 0.916667 12.1667 0.854167 12.375 0.875C12.5833 0.875 12.7604 0.947917 12.9062 1.09375L13.5938 1.78125C13.7396 1.92708 13.8125 2.10417 13.8125 2.3125C13.8125 2.52083 13.7396 2.69792 13.5938 2.84375L7.53125 8.90625C7.38542 9.07292 7.20833 9.15625 7 9.15625C6.79167 9.15625 6.61458 9.07292 6.46875 8.90625Z" fill="#003E76"/>
<path d="M6.46875 8.90625L6.65689 8.74162L6.65141 8.73536L6.64553 8.72947L6.46875 8.90625ZM0.40625 2.84375L0.229473 3.02053L0.40625 2.84375ZM0.40625 1.78125L0.229473 1.60447L0.40625 1.78125ZM1.09375 1.09375L1.27053 1.27053L1.09375 1.09375ZM1.625 0.875V1.125H1.63747L1.64988 1.12376L1.625 0.875ZM2.15625 1.0625L1.97947 1.23928L2.15625 1.0625ZM7 5.90625L6.82322 6.08303L7 6.2598L7.17678 6.08303L7 5.90625ZM12.375 0.875L12.3501 1.12376L12.3625 1.125H12.375V0.875ZM7.53125 8.90625L7.35447 8.72947L7.34859 8.73536L7.34311 8.74162L7.53125 8.90625ZM6.64553 8.72947L0.583027 2.66697L0.229473 3.02053L6.29197 9.08303L6.64553 8.72947ZM0.583027 2.66697C0.48461 2.56856 0.4375 2.45529 0.4375 2.3125H-0.0625C-0.0625 2.58638 0.0362235 2.82728 0.229473 3.02053L0.583027 2.66697ZM0.4375 2.3125C0.4375 2.16971 0.48461 2.05644 0.583027 1.95803L0.229473 1.60447C0.0362235 1.79772 -0.0625 2.03862 -0.0625 2.3125H0.4375ZM0.583027 1.95803L1.27053 1.27053L0.916973 0.916973L0.229473 1.60447L0.583027 1.95803ZM1.27053 1.27053C1.36894 1.17211 1.48221 1.125 1.625 1.125V0.625C1.35112 0.625 1.11022 0.723723 0.916973 0.916973L1.27053 1.27053ZM1.64988 1.12376C1.78491 1.11026 1.88759 1.14739 1.97947 1.23928L2.33303 0.885723C2.13324 0.685941 1.88175 0.598078 1.60012 0.626241L1.64988 1.12376ZM1.97947 1.23928L6.82322 6.08303L7.17678 5.72947L2.33303 0.885723L1.97947 1.23928ZM7.17678 6.08303L12.0205 1.23928L11.667 0.885723L6.82322 5.72947L7.17678 6.08303ZM12.0205 1.23928C12.1124 1.14739 12.2151 1.11026 12.3501 1.12376L12.3999 0.626241C12.1182 0.598078 11.8668 0.685941 11.667 0.885723L12.0205 1.23928ZM12.375 1.125C12.5178 1.125 12.6311 1.17211 12.7295 1.27053L13.083 0.916973C12.8898 0.723723 12.6489 0.625 12.375 0.625V1.125ZM12.7295 1.27053L13.417 1.95803L13.7705 1.60447L13.083 0.916973L12.7295 1.27053ZM13.417 1.95803C13.5154 2.05644 13.5625 2.16971 13.5625 2.3125H14.0625C14.0625 2.03862 13.9638 1.79772 13.7705 1.60447L13.417 1.95803ZM13.5625 2.3125C13.5625 2.45529 13.5154 2.56856 13.417 2.66697L13.7705 3.02053C13.9638 2.82728 14.0625 2.58638 14.0625 2.3125H13.5625ZM13.417 2.66697L7.35447 8.72947L7.70803 9.08303L13.7705 3.02053L13.417 2.66697ZM7.34311 8.74162C7.24135 8.85791 7.13125 8.90625 7 8.90625V9.40625C7.28542 9.40625 7.52948 9.28792 7.71939 9.07088L7.34311 8.74162ZM7 8.90625C6.86875 8.90625 6.75865 8.85791 6.65689 8.74162L6.28061 9.07088C6.47052 9.28792 6.71458 9.40625 7 9.40625V8.90625Z" fill="white"/>
</svg>
