<svg width="30" height="27" viewBox="0 0 30 27" fill="none" xmlns="http://www.w3.org/2000/svg">
<path d="M11.1383 13.7267C9.14275 11.1634 10.0195 8.14082 11.7478 6.688C13.5931 5.13498 16.3067 5.11828 18.1686 6.62955C19.8803 8.02393 20.9073 11.1049 18.8449 13.7267C19.9471 14.1609 20.7653 14.8956 21.1828 16.0145C21.3498 16.4653 21.4417 16.958 21.4751 17.4422C21.5252 18.1019 21.4918 18.7782 21.4834 19.4461C21.4751 20.0557 21.0576 20.5065 20.4898 20.5065C19.922 20.5065 19.4879 20.064 19.4879 19.4545C19.4795 18.8199 19.4879 18.1854 19.4879 17.5508C19.4795 16.3818 18.6195 15.5135 17.4589 15.5051C15.8141 15.4968 14.1692 15.4968 12.5243 15.5051C11.3554 15.5135 10.5037 16.3818 10.4954 17.5508C10.487 18.177 10.4954 18.8032 10.4954 19.4294C10.4954 20.064 10.0695 20.5149 9.48508 20.5065C8.91731 20.4982 8.49148 20.0557 8.49983 19.4378C8.49983 18.6195 8.44973 17.7846 8.54993 16.9747C8.73362 15.455 9.60197 14.4113 11.0047 13.7935C11.0464 13.7768 11.0882 13.7517 11.1383 13.7267ZM14.9874 7.4979C13.3509 7.48956 11.9983 8.83384 11.9899 10.4704C11.9816 12.1403 13.3175 13.5012 14.9874 13.5012C16.624 13.5012 17.9766 12.1653 17.9849 10.5288C18.0016 8.85888 16.6574 7.50625 14.9874 7.4979Z" fill="#023769"/>
<path d="M25.7084 15.2129C25.4078 15.4551 25.0738 15.5719 24.6898 15.4467C24.0134 15.2296 23.7462 14.3947 24.2222 13.877C24.9068 13.1339 25.6333 12.4242 26.3597 11.7311C26.7187 11.3888 27.3032 11.4055 27.6705 11.7645C28.3636 12.4409 29.0482 13.1255 29.7245 13.8185C30.1086 14.2193 30.0836 14.8205 29.6995 15.1962C29.3071 15.5886 28.7142 15.597 28.2968 15.1962C28.1715 15.0793 28.0713 14.929 27.9127 14.7453C27.7624 15.405 27.6622 15.9727 27.4869 16.5238C25.8169 21.7506 22.2934 24.9402 16.8913 25.8252C12.6831 26.5099 8.99256 25.2157 5.89487 22.2767C5.3939 21.8007 5.35215 21.1912 5.77798 20.757C6.18711 20.3396 6.79662 20.3563 7.2809 20.8238C8.95081 22.452 10.938 23.4456 13.2258 23.8464C18.3441 24.7314 23.5041 21.7256 25.3076 16.816C25.4997 16.2984 25.6333 15.7723 25.7919 15.2463C25.7585 15.2463 25.7334 15.2296 25.7084 15.2129Z" fill="#023769"/>
<path d="M4.36695 10.1948C5.22695 9.74394 5.87822 10.2867 5.96172 10.8461C6.01181 11.1801 5.91997 11.4723 5.69453 11.7061C5.03491 12.3824 4.36695 13.0587 3.69063 13.7267C3.28151 14.1275 2.67199 14.1108 2.26286 13.7016C1.61159 13.0504 0.968675 12.3991 0.325758 11.7478C-0.10007 11.3137 -0.108419 10.6958 0.30071 10.295C0.701489 9.90259 1.29431 9.91094 1.72849 10.3284C1.86208 10.4537 1.98732 10.5956 2.16266 10.7709C2.21276 10.5622 2.25451 10.4119 2.28791 10.2533C3.44015 4.94294 7.74852 0.876703 13.1006 0.141941C17.3088 -0.434179 20.9742 0.784858 24.0803 3.69886C24.3976 3.99944 24.5395 4.35012 24.4226 4.7676C24.3224 5.13498 24.0636 5.37712 23.6962 5.46897C23.2871 5.56916 22.9698 5.41052 22.6776 5.13498C21.4418 3.9243 19.9973 3.06429 18.3608 2.52992C12.466 0.601167 5.99511 4.08294 4.40035 10.0362C4.392 10.0696 4.38365 10.1113 4.36695 10.1948Z" fill="#023769"/>
</svg>
