<svg width="25" height="32" viewBox="0 0 25 32" fill="none" xmlns="http://www.w3.org/2000/svg">
<path d="M20.6186 0C21.1243 0.154169 21.6608 0.24667 22.1295 0.47484C23.9055 1.33818 24.849 2.78737 24.9723 4.76073C25.0093 5.35274 24.9847 5.95091 24.9847 6.54909C24.9847 9.92847 24.9847 13.314 24.9847 16.6934C24.9847 17.3779 24.664 17.8466 24.0967 18.0131C23.3443 18.2351 22.592 17.7109 22.5303 16.9277C22.518 16.8044 22.5241 16.6811 22.5241 16.5577C22.5241 12.7467 22.5241 8.92945 22.5241 5.1184C22.5241 4.05155 22.1171 3.20671 21.1366 2.73804C20.7913 2.57153 20.3719 2.47903 19.9834 2.47287C14.9884 2.45437 9.99331 2.45437 4.99824 2.4667C3.53055 2.4667 2.46987 3.52738 2.46987 5.00123C2.46371 12.1978 2.46371 19.3883 2.46987 26.5849C2.46987 28.0155 3.50589 29.0886 4.91807 29.1009C8.30362 29.1256 11.6892 29.1071 15.0747 29.1071C15.1055 29.1071 15.1364 29.0947 15.2042 29.0824C15.2042 28.9776 15.2042 28.8666 15.2042 28.7617C15.2042 27.8984 15.198 27.035 15.2042 26.1717C15.2165 23.668 17.0851 21.7871 19.5826 21.7748C20.9454 21.7686 22.3083 21.7748 23.6773 21.7748C24.257 21.7748 24.701 22.0523 24.8922 22.5456C25.0957 23.076 24.9723 23.5323 24.5777 23.927C22.1788 26.332 19.7799 28.7371 17.3687 31.1359C17.1776 31.3209 16.9124 31.4319 16.6842 31.5738C12.5833 31.5738 8.47628 31.5738 4.3754 31.5738C4.03006 31.4874 3.67856 31.4196 3.34555 31.3024C1.28586 30.5809 0.00934135 28.7494 0.00934135 26.5109C0.00934135 19.8816 0.00934135 13.2585 0.00934135 6.62926C0.00934135 6.01258 -0.0153256 5.39591 0.0155081 4.77923C0.114176 2.8367 1.03919 1.39369 2.77821 0.51184C3.27155 0.26517 3.83889 0.166502 4.36923 0C9.78364 0 15.2042 0 20.6186 0ZM20.6741 24.2785C20.1869 24.2785 19.6751 24.2353 19.1756 24.2908C18.5959 24.3587 18.1642 24.704 17.8867 25.222C17.5291 25.8818 17.7017 26.591 17.6647 27.3187C18.6946 26.2765 19.6874 25.2713 20.6741 24.2785Z" fill="#023769"/>
<path d="M9.27801 10.8596C8.17417 8.63345 8.43934 6.78342 10.0242 5.53157C11.4672 4.39689 13.4714 4.41539 14.8836 5.56241C16.0861 6.54292 16.9988 8.64578 15.6051 10.8226C16.0121 11.1803 16.4438 11.5072 16.8261 11.8895C17.6093 12.6788 18.1088 13.6409 18.337 14.7324C18.6268 16.1076 17.6833 17.2546 16.2649 17.2607C13.9462 17.2669 11.6275 17.2607 9.30885 17.2607C9.04984 17.2607 8.79701 17.2669 8.538 17.2607C7.10732 17.2237 6.19464 15.9966 6.54614 14.6152C6.93465 13.0858 7.77949 11.8833 9.08684 10.9953C9.15468 10.9583 9.21635 10.909 9.27801 10.8596ZM9.10535 14.7879C11.3254 14.7879 13.5392 14.7879 15.7593 14.7879C15.4263 13.5052 13.9277 12.4568 12.4292 12.4568C10.9369 12.4568 9.43218 13.5052 9.10535 14.7879ZM13.8476 8.58412C13.8537 7.81327 13.2247 7.16576 12.4539 7.15343C11.683 7.1411 11.0355 7.7701 11.0232 8.54095C11.0047 9.32413 11.6522 9.98397 12.4292 9.98397C13.1939 9.99014 13.8352 9.35496 13.8476 8.58412Z" fill="#023769"/>
<path d="M9.78364 22.077C8.58729 22.077 7.38477 22.0831 6.18842 22.077C5.30041 22.0708 4.72074 21.263 4.99208 20.4489C5.16474 19.9371 5.62725 19.6164 6.23159 19.6164C7.90278 19.6103 9.57397 19.6164 11.2452 19.6164C11.9543 19.6164 12.6573 19.6103 13.3665 19.6164C14.1497 19.6226 14.6985 20.1283 14.7047 20.8375C14.7109 21.559 14.1497 22.077 13.3542 22.0831C12.164 22.077 10.9738 22.077 9.78364 22.077Z" fill="#023769"/>
<path d="M8.95159 26.5787C8.02041 26.5787 7.08306 26.5848 6.15189 26.5787C5.54138 26.5725 5.0727 26.1717 4.9432 25.5858C4.82603 25.0493 5.10971 24.4697 5.63388 24.2415C5.81271 24.1613 6.02855 24.1182 6.22589 24.1182C8.06358 24.1058 9.8951 24.1058 11.7328 24.112C12.4913 24.112 13.034 24.63 13.0401 25.333C13.0463 26.0422 12.4913 26.5725 11.7205 26.5725C10.7954 26.5787 9.8766 26.5787 8.95159 26.5787Z" fill="#023769"/>
</svg>
