<svg width="29" height="29" viewBox="0 0 29 29" fill="none" xmlns="http://www.w3.org/2000/svg">
<path d="M26.8984 20.7236C27.1839 20.7236 27.5298 20.7236 27.8672 20.7236C28.5418 20.7323 29.0089 21.1734 29.0002 21.7875C28.9916 22.3843 28.5245 22.7908 27.8499 22.7908C27.5125 22.7908 27.1839 22.7908 26.8898 22.7908C26.6303 23.4136 26.3795 24.0104 26.0854 24.711C26.2843 24.8926 26.5611 25.1175 26.812 25.3597C27.2877 25.8354 27.305 26.4581 26.8811 26.8819C26.4573 27.3057 25.8259 27.2884 25.3589 26.8214C25.1167 26.5792 24.8745 26.337 24.6496 26.1035C24.0355 26.363 23.4474 26.6138 22.79 26.8906C22.79 27.1674 22.79 27.5133 22.79 27.8679C22.7814 28.5512 22.3922 28.9837 21.7694 28.9923C21.1294 29.001 20.7229 28.5685 20.7229 27.8679C20.7229 27.522 20.7229 27.1846 20.7229 26.8906C20.0915 26.6224 19.4947 26.3803 18.82 26.0948C18.6211 26.3111 18.3789 26.5878 18.1194 26.8473C17.6524 27.3057 17.0642 27.3144 16.6318 26.8819C16.1906 26.4495 16.1993 25.8613 16.6577 25.3943C16.9172 25.1348 17.1767 24.8839 17.4015 24.6591C17.1334 24.019 16.8826 23.4309 16.6145 22.7995C16.2944 22.7995 15.9312 22.7995 15.5679 22.7995C14.9279 22.7908 14.5127 22.393 14.504 21.7875C14.4954 21.1648 14.9106 20.7496 15.5593 20.7323C15.9225 20.7236 16.2858 20.7323 16.6058 20.7323C16.8739 20.1009 17.1161 19.5041 17.4015 18.8208C17.1853 18.6305 16.9085 18.3883 16.6577 18.1289C16.1993 17.6618 16.1906 17.0737 16.6231 16.6412C17.0642 16.2001 17.6437 16.2087 18.1108 16.6758C18.3616 16.9266 18.6038 17.1861 18.82 17.411C19.4601 17.1428 20.0482 16.892 20.7056 16.6066C20.7056 16.3298 20.7056 15.9838 20.7056 15.6292C20.7142 14.9719 21.138 14.5048 21.7435 14.5048C22.3489 14.5048 22.7727 14.9632 22.7814 15.6292C22.7814 15.9752 22.7814 16.3212 22.7814 16.6152C23.4128 16.8834 24.0009 17.1256 24.6842 17.411C24.8745 17.212 25.0994 16.9439 25.3502 16.6931C25.8173 16.226 26.4487 16.2087 26.8725 16.6498C27.2877 17.0737 27.2704 17.6878 26.812 18.1548C26.5698 18.4056 26.3276 18.6392 26.1027 18.8641C26.3708 19.4782 26.6217 20.075 26.8984 20.7236ZM24.8572 21.7616C24.8572 20.0404 23.482 18.6565 21.7608 18.6478C20.0396 18.6392 18.647 20.0144 18.6384 21.7356C18.6297 23.4655 20.0223 24.8666 21.7521 24.858C23.4733 24.858 24.8572 23.4828 24.8572 21.7616Z" fill="#023769"/>
<path d="M12.4278 0C15.8529 0 18.6467 2.80236 18.6467 6.22747C18.6467 9.64393 15.8356 12.4463 12.4105 12.4376C9.00272 12.429 6.209 9.62664 6.209 6.21882C6.20036 2.80236 9.00272 0 12.4278 0ZM8.27618 6.20153C8.26753 8.49358 10.1012 10.3532 12.3846 10.3618C14.6939 10.3705 16.5535 8.53683 16.5622 6.23612C16.5708 3.94407 14.7372 2.08447 12.4538 2.07582C10.1444 2.05853 8.28483 3.89217 8.27618 6.20153Z" fill="#023769"/>
<path d="M2.07471 24.8666C2.23039 24.8666 2.35148 24.8666 2.48122 24.8666C5.71605 24.8666 8.95088 24.8666 12.1944 24.8666C12.9901 24.8666 13.4917 25.5067 13.2755 26.2159C13.1458 26.6138 12.7912 26.8992 12.3673 26.9338C12.2635 26.9425 12.1511 26.9338 12.0473 26.9338C9.00277 26.9338 5.95823 26.9252 2.92233 26.9338C-0.191402 26.9511 -0.0270659 27.0895 0.0161805 23.9931C0.0248297 23.3184 0.0767253 22.6351 0.206464 21.9691C0.950302 18.0164 4.37541 14.8767 8.38867 14.5654C10.1012 14.4356 11.8397 14.5048 13.5609 14.5048C14.1231 14.5048 14.547 14.9892 14.5383 15.5514C14.5297 16.1222 14.0972 16.5633 13.5004 16.572C12.0906 16.5806 10.6721 16.5633 9.26225 16.5806C5.95823 16.6066 3.15586 18.7949 2.31689 21.9864C2.04876 22.9206 2.04011 23.8633 2.07471 24.8666Z" fill="#023769"/>
</svg>
