<svg width="22" height="18" viewBox="0 0 22 18" fill="none" xmlns="http://www.w3.org/2000/svg">
<path d="M11.3499 17.2858C9.64161 17.2858 7.93335 17.2989 6.22509 17.2858C3.27327 17.2596 0.753426 15.1914 0.138191 12.2984C-0.503224 9.30735 1.13958 6.27699 3.99977 5.16433C4.15686 5.10542 4.24194 5.02034 4.30085 4.85017C5.28915 1.80017 8.20825 -0.182981 11.3891 0.0133705C14.6224 0.216267 17.2993 2.54631 17.9211 5.69448C17.9473 5.83193 17.9996 5.96937 17.9931 6.10682C17.9669 6.45371 18.1633 6.55843 18.4578 6.66315C20.7224 7.50091 22.195 9.83095 21.979 12.1937C21.7434 14.7463 19.9239 16.7622 17.4564 17.1876C17.103 17.2465 16.743 17.2727 16.383 17.2792C14.7009 17.2923 13.0254 17.2858 11.3499 17.2858ZM9.41908 9.43171C9.41908 9.54297 9.41908 9.6346 9.41908 9.71969C9.41908 10.6491 9.41908 11.585 9.41908 12.5144C9.41908 13.4373 10.1063 14.1441 10.9899 14.1376C11.88 14.1376 12.5542 13.4373 12.5607 12.5079C12.5673 11.5785 12.5607 10.6425 12.5607 9.71314C12.5607 9.62806 12.5607 9.53643 12.5607 9.43171C13.0712 9.43171 13.5621 9.42516 14.053 9.43171C14.426 9.43825 14.7075 9.28771 14.858 8.94083C15.002 8.58739 14.8973 8.29287 14.6355 8.03106C13.621 7.02313 12.6131 6.00864 11.5986 5.0007C11.219 4.62109 10.7739 4.62109 10.3877 5.00725C9.37326 6.01519 8.36532 7.02967 7.35084 8.03761C7.08904 8.29941 6.98432 8.60048 7.12831 8.94737C7.27885 9.29426 7.56028 9.43825 7.93335 9.43171C8.41769 9.42516 8.89548 9.43171 9.41908 9.43171Z" fill="#023769"/>
</svg>
