<svg width="25" height="26" viewBox="0 0 25 26" fill="none" xmlns="http://www.w3.org/2000/svg">
<path d="M23.043 25.0489C23.0247 22.5416 22.2419 20.2911 20.6458 18.3586C18.8723 16.2182 16.5974 14.9095 13.8209 14.5731C10.6103 14.1879 7.79109 15.0868 5.39383 17.2639C3.43077 19.0497 2.31776 21.2879 2.01199 23.9237C1.96918 24.2967 1.96918 24.6698 1.95083 25.0428C1.30259 25.0428 0.648239 25.0428 0 25.0428C0 24.7982 0 24.5536 0 24.309C0.0122309 24.2417 0.0366927 24.1683 0.0428082 24.101C0.128425 22.8046 0.409736 21.5509 0.911203 20.3584C2.31776 16.9949 4.72725 14.6465 8.12133 13.3134C8.20694 13.2828 8.29256 13.2461 8.40264 13.2033C8.29256 13.1177 8.21918 13.0687 8.15191 13.0137C6.34173 11.5888 5.36326 9.7297 5.28376 7.42417C5.23483 5.91977 5.63234 4.51933 6.47016 3.26566C7.46086 1.7796 8.81238 0.770548 10.5308 0.287427C11.0139 0.152886 11.5154 0.0917319 12.0108 0C12.3349 0 12.659 0 12.9892 0C13.3806 0.0672701 13.7781 0.103963 14.1634 0.20181C17.1661 0.954012 19.3065 3.33293 19.6673 6.37231C19.9486 8.76957 19.1781 10.8182 17.4535 12.5C17.2028 12.7446 16.9154 12.9648 16.6218 13.2094C19.123 14.1145 21.1534 15.6311 22.6884 17.7899C24.2356 19.9547 24.9816 22.3887 25 25.0428C24.3456 25.0489 23.6913 25.0489 23.043 25.0489ZM17.7654 7.23459C17.7593 4.32975 15.3987 1.96306 12.5 1.95695C9.60127 1.95083 7.21624 4.33586 7.21624 7.24682C7.22236 10.1517 9.58292 12.5183 12.4817 12.5245C15.3865 12.5306 17.7715 10.1455 17.7654 7.23459Z" fill="white"/>
</svg>
